Coordinates
version=1
nRows=34
nColumns=38
inDegrees=no

Units are S.I. units (second, meters, Newtons, ...)
If the header above contains a line with 'inDegrees', this indicates whether rotational values are in degrees (yes) or radians (no).

endheader
time	pelvis_tilt	pelvis_list	pelvis_rotation	pelvis_tx	pelvis_ty	pelvis_tz	hip_flexion_r	hip_adduction_r	hip_rotation_r	knee_angle_r	ankle_angle_r	subtalar_angle_r	mtp_angle_r	hip_flexion_l	hip_adduction_l	hip_rotation_l	knee_angle_l	ankle_angle_l	subtalar_angle_l	mtp_angle_l	lumbar_extension	lumbar_bending	lumbar_rotation	arm_flex_r	arm_add_r	arm_rot_r	elbow_flex_r	pro_sup_r	wrist_flex_r	wrist_dev_r	arm_flex_l	arm_add_l	arm_rot_l	elbow_flex_l	pro_sup_l	wrist_flex_l	wrist_dev_l
165	-2.97392	1.42625	-1.69499	0.624317	1.15153	1.07597	0.0523591	-0.106453	0.108339	0.904716	-0.212686	0	0	-0.0115868	0.013638	-0.169059	0.245591	-0.351515	0	0	-0.116488	-0.0965434	0.176868	0.595575	-0.382287	0.567938	0.936706	1.5708	0	0	0.747246	-0.137271	0.849787	0.767373	1.5708	0	0
165.01	-2.96015	1.42641	-1.70921	0.626534	1.14749	1.07526	0.0436601	-0.10932	0.106579	0.900807	-0.224486	0	0	-0.00657441	0.0137149	-0.166891	0.245614	-0.353709	0	0	-0.115149	-0.0978937	0.178011	0.594834	-0.381536	0.567627	0.939282	1.5708	0	0	0.746429	-0.13982	0.848261	0.769778	1.5708	0	0
165.02	-2.94669	1.42666	-1.72333	0.628853	1.14334	1.0745	0.0347944	-0.111666	0.105141	0.89514	-0.236078	0	0	-0.0014333	0.013578	-0.165025	0.245646	-0.355826	0	0	-0.11381	-0.0990582	0.179283	0.594411	-0.380901	0.567828	0.942042	1.5708	0	0	0.7456	-0.142496	0.846277	0.772216	1.5708	0	0
165.03	-2.93376	1.42686	-1.73696	0.631321	1.13908	1.07372	0.0260361	-0.113835	0.102884	0.887922	-0.245587	0	0	0.00354368	0.0133192	-0.162992	0.245112	-0.358061	0	0	-0.112647	-0.100204	0.180542	0.594384	-0.379997	0.56814	0.944627	1.5708	0	0	0.744869	-0.145455	0.843993	0.774872	1.5708	0	0
165.04	-2.92121	1.42714	-1.7502	0.633922	1.13468	1.07289	0.0174239	-0.115482	0.100486	0.87928	-0.252176	0	0	0.00850238	0.0129148	-0.160528	0.243937	-0.360533	0	0	-0.111447	-0.101436	0.181604	0.59468	-0.378682	0.568626	0.947089	1.5708	0	0	0.744241	-0.148795	0.841705	0.777829	1.5708	0	0
165.05	-2.90913	1.42759	-1.76304	0.63663	1.13011	1.07201	0.00915294	-0.116704	0.0984659	0.868604	-0.255181	0	0	0.0133694	0.012448	-0.157377	0.241861	-0.363139	0	0	-0.110185	-0.102571	0.18268	0.595729	-0.377201	0.56961	0.948874	1.5708	0	0	0.743872	-0.152081	0.839442	0.780445	1.5708	0	0
165.06	-2.89765	1.42806	-1.77527	0.639436	1.12542	1.0711	0.00128623	-0.117884	0.095645	0.855306	-0.253701	0	0	0.0179462	0.0119228	-0.153768	0.238823	-0.366015	0	0	-0.109092	-0.103609	0.183718	0.597453	-0.375504	0.570979	0.950132	1.5708	0	0	0.743806	-0.155529	0.837346	0.78295	1.5708	0	0
165.07	-2.88673	1.42884	-1.78697	0.642304	1.12056	1.07018	-0.00603767	-0.11877	0.092844	0.838632	-0.24679	0	0	0.0230415	0.0112106	-0.15002	0.235606	-0.369295	0	0	-0.108049	-0.104363	0.184725	0.599443	-0.373805	0.572461	0.951436	1.5708	0	0	0.743973	-0.158985	0.83501	0.785203	1.5708	0	0
165.08	-2.87718	1.43008	-1.79731	0.645298	1.11553	1.06921	-0.0126059	-0.118686	0.0901497	0.81869	-0.235296	0	0	0.0292264	0.00983621	-0.147062	0.233396	-0.372605	0	0	-0.106803	-0.104915	0.185756	0.602081	-0.372056	0.574516	0.952147	1.5708	0	0	0.744434	-0.162349	0.832541	0.786943	1.5708	0	0
165.09	-2.86824	1.43196	-1.80713	0.64843	1.11033	1.06817	-0.0176706	-0.117564	0.0870981	0.796685	-0.222669	0	0	0.0363489	0.00799157	-0.144053	0.231373	-0.375832	0	0	-0.10508	-0.105389	0.186708	0.605237	-0.369932	0.576981	0.95241	1.5708	0	0	0.744906	-0.16582	0.829647	0.788469	1.5708	0	0
165.1	-2.85996	1.43424	-1.8163	0.651665	1.10497	1.06708	-0.0216236	-0.115324	0.0825807	0.774716	-0.210523	0	0	0.0439798	0.0057937	-0.14077	0.229177	-0.379043	0	0	-0.1032	-0.105619	0.187561	0.608706	-0.367492	0.579552	0.952504	1.5708	0	0	0.745446	-0.169302	0.826366	0.789757	1.5708	0	0
165.11	-2.85229	1.43675	-1.82468	0.654964	1.09945	1.06601	-0.0244953	-0.112474	0.0753541	0.755254	-0.198115	0	0	0.0520194	0.00332751	-0.137203	0.226996	-0.38232	0	0	-0.101448	-0.105529	0.18811	0.612527	-0.364836	0.582422	0.95242	1.5708	0	0	0.746128	-0.172849	0.822972	0.791006	1.5708	0	0
165.12	-2.8479	1.43914	-1.82952	0.658306	1.09378	1.06503	-0.0266578	-0.10928	0.0656052	0.738889	-0.186121	0	0	0.0601934	0.000293815	-0.133725	0.225339	-0.385201	0	0	-0.100317	-0.104954	0.18852	0.616831	-0.362167	0.58564	0.95192	1.5708	0	0	0.747319	-0.176119	0.820133	0.791736	1.5708	0	0
165.13	-2.84859	1.44117	-1.82901	0.661672	1.08795	1.06424	-0.028756	-0.105628	0.0545125	0.723481	-0.173728	0	0	0.0682962	-0.00350986	-0.130468	0.224481	-0.38819	0	0	-0.100419	-0.103639	0.188418	0.621746	-0.359383	0.58897	0.951423	1.5708	0	0	0.748483	-0.179224	0.81653	0.792406	1.5708	0	0
165.14	-2.85521	1.44276	-1.82262	0.665052	1.08191	1.06367	-0.0307607	-0.101635	0.0433784	0.708903	-0.162166	0	0	0.0760072	-0.0080669	-0.127157	0.224023	-0.391093	0	0	-0.102162	-0.101546	0.188108	0.627334	-0.356692	0.592096	0.951353	1.5708	0	0	0.749587	-0.181941	0.811421	0.793172	1.5708	0	0
165.15	-2.86769	1.44403	-1.81051	0.668438	1.07565	1.06331	-0.0323971	-0.0974699	0.0323806	0.69554	-0.151795	0	0	0.0834177	-0.0133525	-0.123843	0.223731	-0.393852	0	0	-0.105134	-0.0985004	0.187848	0.633723	-0.35431	0.595624	0.951244	1.5708	0	0	0.75126	-0.184507	0.806159	0.793772	1.5708	0	0
165.16	-2.88523	1.44547	-1.79291	0.671799	1.06926	1.06309	-0.0337368	-0.0926436	0.020671	0.682518	-0.142975	0	0	0.091385	-0.0194328	-0.12009	0.2244	-0.395959	0	0	-0.108432	-0.0946349	0.187223	0.640551	-0.351951	0.599556	0.950688	1.5708	0	0	0.753472	-0.186956	0.801378	0.793849	1.5708	0	0
165.17	-2.90518	1.44706	-1.77267	0.675163	1.06278	1.063	-0.0345252	-0.0871663	0.00898043	0.66996	-0.136686	0	0	0.0999653	-0.0260034	-0.116253	0.226089	-0.396879	0	0	-0.112062	-0.0906237	0.18665	0.647242	-0.349816	0.603153	0.950416	1.5708	0	0	0.756232	-0.188982	0.797061	0.793217	1.5708	0	0
165.18	-2.92924	1.44848	-1.74811	0.678452	1.05613	1.06305	-0.0349827	-0.081037	-0.00172752	0.656529	-0.132061	0	0	0.10907	-0.0331296	-0.112491	0.22927	-0.396855	0	0	-0.116513	-0.0859745	0.185606	0.654656	-0.347819	0.60755	0.950156	1.5708	0	0	0.759043	-0.190752	0.792077	0.792322	1.5708	0	0
165.19	-2.95566	1.44959	-1.72132	0.681687	1.04932	1.06322	-0.0346473	-0.0744636	-0.010281	0.643559	-0.129666	0	0	0.118606	-0.0406056	-0.109542	0.234172	-0.395343	0	0	-0.121806	-0.0809472	0.184483	0.662749	-0.346018	0.612737	0.949882	1.5708	0	0	0.761853	-0.19223	0.786269	0.791343	1.5708	0	0
165.2	-2.98221	1.45062	-1.69445	0.684871	1.04241	1.06349	-0.0330319	-0.0675624	-0.0165341	0.631891	-0.129344	0	0	0.128748	-0.0481976	-0.107497	0.240731	-0.392062	0	0	-0.127508	-0.0758292	0.183327	0.671241	-0.344273	0.618386	0.949606	1.5708	0	0	0.764896	-0.193784	0.780359	0.790541	1.5708	0	0
165.21	-3.00685	1.45169	-1.66962	0.687993	1.03543	1.06382	-0.0296788	-0.0607109	-0.0204516	0.622483	-0.130645	0	0	0.139296	-0.0556299	-0.106101	0.248403	-0.386915	0	0	-0.133338	-0.0709786	0.182245	0.67979	-0.342497	0.623869	0.949504	1.5708	0	0	0.76797	-0.195286	0.774244	0.790005	1.5708	0	0
165.22	-3.03102	1.45281	-1.64541	0.691044	1.02842	1.06421	-0.0243168	-0.0541513	-0.0219874	0.615375	-0.134092	0	0	0.150482	-0.0631156	-0.106027	0.258009	-0.378497	0	0	-0.139159	-0.0659744	0.181148	0.688787	-0.340872	0.630095	0.949391	1.5708	0	0	0.770845	-0.196943	0.767733	0.790001	1.5708	0	0
165.23	-3.0504	1.45382	-1.62627	0.694065	1.02146	1.06467	-0.0174728	-0.0483977	-0.0218993	0.61124	-0.138218	0	0	0.161063	-0.0697772	-0.106707	0.266827	-0.369315	0	0	-0.144733	-0.0620709	0.180444	0.697689	-0.339295	0.636089	0.948734	1.5708	0	0	0.773698	-0.198536	0.761879	0.790111	1.5708	0	0
165.24	-3.06636	1.45453	-1.6104	0.697002	1.01459	1.0652	-0.0104118	-0.0431412	-0.0217105	0.608766	-0.142296	0	0	0.171179	-0.0758316	-0.108206	0.27584	-0.359945	0	0	-0.150349	-0.0589371	0.179691	0.706133	-0.337472	0.641381	0.947714	1.5708	0	0	0.776516	-0.200107	0.756709	0.790239	1.5708	0	0
165.25	-3.07662	1.45497	-1.59968	0.699747	1.00781	1.06578	-0.00361601	-0.038887	-0.0221915	0.607154	-0.14601	0	0	0.181161	-0.0810073	-0.110091	0.285516	-0.350597	0	0	-0.155929	-0.056634	0.178461	0.713983	-0.335518	0.646318	0.946586	1.5708	0	0	0.77964	-0.201987	0.753084	0.790321	1.5708	0	0
165.26	-3.0801	1.45523	-1.59535	0.702324	1.00113	1.06641	0.00286294	-0.0358592	-0.022923	0.605687	-0.149612	0	0	0.191075	-0.0851463	-0.112733	0.295701	-0.341094	0	0	-0.161171	-0.0554225	0.176808	0.721222	-0.333345	0.65137	0.945084	1.5708	0	0	0.78288	-0.2043	0.751012	0.790336	1.5708	0	0
165.27	-3.07731	1.45541	-1.59692	0.704732	0.994604	1.06709	0.00909083	-0.0340193	-0.0234132	0.603848	-0.154302	0	0	0.201512	-0.0885127	-0.116981	0.308017	-0.330258	0	0	-0.166028	-0.0550907	0.174562	0.727625	-0.330951	0.656192	0.943658	1.5708	0	0	0.785477	-0.207041	0.749263	0.790948	1.5708	0	0
165.28	-3.06878	1.4552	-1.60371	0.706972	0.988246	1.06787	0.0145627	-0.0330391	-0.0237551	0.601344	-0.158875	0	0	0.211364	-0.0908892	-0.1207	0.321185	-0.321123	0	0	-0.170877	-0.0556541	0.172046	0.732509	-0.328579	0.659165	0.943112	1.5708	0	0	0.787735	-0.209618	0.747631	0.791797	1.5708	0	0
165.29	-3.05631	1.45438	-1.61372	0.709077	0.982077	1.06873	0.0188702	-0.0323315	-0.0244318	0.598521	-0.163315	0	0	0.220203	-0.0924503	-0.12345	0.335803	-0.31468	0	0	-0.175733	-0.0568398	0.169152	0.736193	-0.326121	0.660803	0.942798	1.5708	0	0	0.790236	-0.212437	0.747115	0.792773	1.5708	0	0
165.3	-3.04155	1.45281	-1.62566	0.711067	0.976076	1.06967	0.0219988	-0.0317831	-0.0251712	0.595341	-0.16883	0	0	0.227993	-0.0935596	-0.126355	0.353364	-0.309374	0	0	-0.18088	-0.0586809	0.165717	0.739415	-0.323295	0.662102	0.942143	1.5708	0	0	0.792173	-0.215481	0.746091	0.794339	1.5708	0	0
165.31	-3.02544	1.4507	-1.63891	0.712977	0.970229	1.07067	0.0238103	-0.0313143	-0.0253581	0.590722	-0.17371	0	0	0.233876	-0.0939482	-0.128114	0.371812	-0.306032	0	0	-0.186283	-0.0611564	0.162439	0.741666	-0.320331	0.662012	0.941765	1.5708	0	0	0.79379	-0.218407	0.745075	0.79617	1.5708	0	0
165.32	-3.01015	1.44862	-1.65092	0.714836	0.964598	1.07166	0.0248984	-0.0306453	-0.0258923	0.585084	-0.178641	0	0	0.238832	-0.094024	-0.128512	0.392241	-0.30178	0	0	-0.190882	-0.0637223	0.159103	0.742836	-0.317356	0.661156	0.941251	1.5708	0	0	0.795271	-0.221535	0.745272	0.797694	1.5708	0	0
165.33	-2.99574	1.44628	-1.66195	0.716588	0.959098	1.07265	0.0256116	-0.0300782	-0.0267367	0.579902	-0.183215	0	0	0.24271	-0.0936688	-0.127783	0.414891	-0.296424	0	0	-0.195182	-0.0660623	0.155987	0.743426	-0.314995	0.660453	0.941031	1.5708	0	0	0.796906	-0.224547	0.746647	0.798647	1.5708	0	0
